<svg width="195" height="30" viewBox="0 0 195 30" fill="none" xmlns="http://www.w3.org/2000/svg">
<path d="M11.6184 23.384C8.31171 23.384 5.55971 22.36 3.36238 20.312C1.16504 18.2427 0.066375 15.5867 0.066375 12.344C0.066375 9.08 1.15438 6.424 3.33038 4.376C5.52771 2.328 8.29038 1.304 11.6184 1.304C15.9064 1.304 19.0104 3.21333 20.9304 7.032L16.1944 9.272C15.8317 8.39733 15.2237 7.66133 14.3704 7.064C13.5384 6.46667 12.621 6.168 11.6184 6.168C9.89038 6.168 8.46104 6.76533 7.33038 7.96C6.22104 9.13333 5.66638 10.5947 5.66638 12.344C5.66638 14.0933 6.22104 15.5653 7.33038 16.76C8.46104 17.9333 9.89038 18.52 11.6184 18.52C12.621 18.52 13.5384 18.2213 14.3704 17.624C15.2237 17.0267 15.8317 16.2907 16.1944 15.416L20.9304 17.656C20.1197 19.2773 18.9464 20.6427 17.4104 21.752C15.8957 22.84 13.965 23.384 11.6184 23.384ZM38.6066 23H33.6786V14.008C33.6786 12.344 32.8253 11.512 31.1186 11.512C29.9453 11.512 28.9533 12.0133 28.1426 13.016V23H23.2146V1.656H28.1426V9.432C29.444 7.91733 31.2253 7.16 33.4866 7.16C35.1933 7.16 36.4733 7.59733 37.3266 8.472C38.18 9.32533 38.6066 10.4987 38.6066 11.992V23ZM56.2306 23H51.3026V21.464C50.812 22.04 50.1293 22.5093 49.2546 22.872C48.4013 23.2133 47.484 23.384 46.5026 23.384C45.1586 23.384 43.932 22.9467 42.8226 22.072C41.7346 21.176 41.1906 19.9173 41.1906 18.296C41.1906 16.5893 41.724 15.3413 42.7906 14.552C43.8573 13.7413 45.0946 13.336 46.5026 13.336C48.7426 13.336 50.3426 13.9333 51.3026 15.128V13.272C51.3026 12.5893 51.0253 12.0453 50.4706 11.64C49.916 11.2347 49.148 11.032 48.1666 11.032C46.524 11.032 45.0626 11.576 43.7826 12.664L42.0226 9.56C43.9 7.96 46.236 7.16 49.0306 7.16C50.012 7.16 50.908 7.26667 51.7186 7.48C52.5506 7.672 53.308 7.992 53.9906 8.44C54.6946 8.888 55.2386 9.528 55.6226 10.36C56.028 11.192 56.2306 12.184 56.2306 13.336V23ZM48.5506 20.152C49.8733 20.152 50.7906 19.7787 51.3026 19.032V17.656C50.7693 16.9307 49.852 16.568 48.5506 16.568C47.8466 16.568 47.26 16.728 46.7906 17.048C46.3213 17.3467 46.0866 17.784 46.0866 18.36C46.0866 18.936 46.3213 19.384 46.7906 19.704C47.26 20.0027 47.8466 20.152 48.5506 20.152ZM64.7356 23H59.8076V7.544H64.7356V9.432C65.269 8.792 65.9836 8.248 66.8796 7.8C67.7756 7.352 68.6716 7.128 69.5676 7.128V11.864C69.1836 11.7787 68.7783 11.736 68.3516 11.736C67.669 11.736 66.965 11.8747 66.2396 12.152C65.5356 12.408 65.0343 12.7387 64.7356 13.144V23ZM96.1916 23H91.2956V13.592C91.2956 12.2053 90.613 11.512 89.2476 11.512C88.1383 11.512 87.2103 12.0133 86.4636 13.016V23H81.5356V13.592C81.5356 12.2053 80.853 11.512 79.4876 11.512C78.4636 11.512 77.5463 12.0133 76.7356 13.016V23H71.8076V7.544H76.7356V9.432C77.141 8.89867 77.813 8.38667 78.7516 7.896C79.6903 7.40533 80.7143 7.16 81.8236 7.16C84.1063 7.16 85.5676 8.07733 86.2076 9.912C86.6983 9.16533 87.4236 8.52533 88.3836 7.992C89.365 7.43733 90.421 7.16 91.5516 7.16C93.0236 7.16 94.165 7.55467 94.9756 8.344C95.7863 9.112 96.1916 10.264 96.1916 11.8V23Z" fill="#333333"/>
<path d="M108.928 23H99.9356V1.656H108.896C112.309 1.656 115.082 2.616 117.216 4.536C119.37 6.456 120.448 9.048 120.448 12.312C120.448 15.576 119.37 18.1787 117.216 20.12C115.082 22.04 112.32 23 108.928 23ZM108.896 18.2C110.709 18.2 112.149 17.6347 113.216 16.504C114.282 15.352 114.816 13.9547 114.816 12.312C114.816 10.584 114.304 9.176 113.28 8.088C112.256 7 110.805 6.456 108.928 6.456H105.44V18.2H108.896ZM137.106 23H132.178V21.464C131.687 22.04 131.004 22.5093 130.13 22.872C129.276 23.2133 128.359 23.384 127.378 23.384C126.034 23.384 124.807 22.9467 123.698 22.072C122.61 21.176 122.066 19.9173 122.066 18.296C122.066 16.5893 122.599 15.3413 123.666 14.552C124.732 13.7413 125.97 13.336 127.378 13.336C129.618 13.336 131.218 13.9333 132.178 15.128V13.272C132.178 12.5893 131.9 12.0453 131.346 11.64C130.791 11.2347 130.023 11.032 129.042 11.032C127.399 11.032 125.938 11.576 124.658 12.664L122.898 9.56C124.775 7.96 127.111 7.16 129.906 7.16C130.887 7.16 131.783 7.26667 132.594 7.48C133.426 7.672 134.183 7.992 134.866 8.44C135.57 8.888 136.114 9.528 136.498 10.36C136.903 11.192 137.106 12.184 137.106 13.336V23ZM129.426 20.152C130.748 20.152 131.666 19.7787 132.178 19.032V17.656C131.644 16.9307 130.727 16.568 129.426 16.568C128.722 16.568 128.135 16.728 127.666 17.048C127.196 17.3467 126.962 17.784 126.962 18.36C126.962 18.936 127.196 19.384 127.666 19.704C128.135 20.0027 128.722 20.152 129.426 20.152ZM146.539 23.384C144.96 23.384 143.755 23 142.923 22.232C142.112 21.464 141.707 20.3333 141.707 18.84V11.832H139.147V7.544H141.707V3.32H146.603V7.544H149.739V11.832H146.603V17.464C146.603 17.9333 146.72 18.3173 146.955 18.616C147.211 18.8933 147.552 19.032 147.979 19.032C148.597 19.032 149.013 18.904 149.227 18.648L150.187 22.36C149.461 23.0427 148.245 23.384 146.539 23.384ZM156.662 5.336C156.129 5.89067 155.467 6.168 154.678 6.168C153.889 6.168 153.217 5.89067 152.662 5.336C152.129 4.78133 151.862 4.10933 151.862 3.32C151.862 2.53067 152.129 1.86933 152.662 1.336C153.217 0.781333 153.889 0.504 154.678 0.504C155.467 0.504 156.129 0.781333 156.662 1.336C157.217 1.86933 157.494 2.53067 157.494 3.32C157.494 4.10933 157.217 4.78133 156.662 5.336ZM157.142 23H152.214V7.544H157.142V23ZM176.106 23H171.178V14.072C171.178 12.3653 170.335 11.512 168.65 11.512C167.455 11.512 166.453 12.0133 165.642 13.016V23H160.714V7.544H165.642V9.432C166.943 7.91733 168.725 7.16 170.986 7.16C172.693 7.16 173.973 7.608 174.826 8.504C175.679 9.37867 176.106 10.5627 176.106 12.056V23ZM186.115 29.272C183.427 29.272 181.144 28.504 179.267 26.968L181.411 23.448C182.52 24.6427 184.088 25.24 186.115 25.24C187.139 25.24 188.045 24.9733 188.835 24.44C189.645 23.9067 190.051 22.9893 190.051 21.688V20.504C188.771 21.9973 187.245 22.744 185.475 22.744C183.491 22.744 181.859 22.072 180.579 20.728C179.299 19.3627 178.659 17.432 178.659 14.936C178.659 12.4613 179.288 10.552 180.547 9.208C181.827 7.84267 183.469 7.16 185.475 7.16C187.331 7.16 188.856 7.896 190.051 9.368V7.544H194.947V21.624C194.947 22.84 194.755 23.9067 194.371 24.824C194.008 25.7627 193.539 26.4987 192.963 27.032C192.387 27.5867 191.693 28.0347 190.883 28.376C190.072 28.7387 189.283 28.9733 188.515 29.08C187.747 29.208 186.947 29.272 186.115 29.272ZM187.107 18.392C187.64 18.392 188.184 18.264 188.739 18.008C189.315 17.752 189.752 17.4213 190.051 17.016V12.888C189.752 12.4827 189.315 12.152 188.739 11.896C188.184 11.64 187.64 11.512 187.107 11.512C186.104 11.512 185.283 11.8107 184.643 12.408C184.024 13.0053 183.715 13.848 183.715 14.936C183.715 16.0453 184.024 16.8987 184.643 17.496C185.283 18.0933 186.104 18.392 187.107 18.392Z" fill="#469CBC"/>
</svg>
